<svg width="218" height="90" viewBox="0 0 218 90" fill="none" xmlns="http://www.w3.org/2000/svg">
<path d="M191.323 60.0705V41.847C192.176 38.8454 194.166 37.7377 195.054 37.5591H212.645C215.631 37.5591 217.088 40.4177 217.443 41.847C217.621 46.6709 217.869 57.069 217.443 60.0705C217.017 63.072 214.778 64.1797 213.712 64.3584C208.381 64.5371 197.186 64.7872 195.054 64.3584C192.922 63.9296 191.678 61.3212 191.323 60.0705Z" fill="#D9D9D9"/>
<path d="M212 42H197C196.448 42 196 42.4477 196 43V59C196 59.5523 196.448 60 197 60H212C212.552 60 213 59.5523 213 59V43C213 42.4477 212.552 42 212 42Z" fill="#323232"/>
<path d="M169.695 64.9801L154.237 38.1808H159.567L171.828 58.5483L184.088 38.1808H189.419L173.96 64.9801H169.695Z" fill="#D9D9D9"/>
<path d="M125.445 41.5244L124.918 65.4304H130.193V55.9791H146.545V65.4304H151.293C151.468 58.3883 151.82 44.3041 151.293 41.5244C150.965 39.8004 148.128 37.0767 143.908 37.6326C137.05 37.6327 129.771 37.7437 128.083 38.1885C126.395 38.6332 125.973 40.4125 125.445 41.5244Z" stroke="#29ABE2" stroke-width="1.5"/>
<path d="M146.241 50.4228H130.249V42.9189H146.241V50.4228Z" fill="#323232" stroke="#29ABE2" stroke-width="1.5"/>
<path d="M94.5332 65.5161V37.6448H116.835C119.881 37.6448 121.005 40.9894 121.186 42.6617V61.6142C121.186 63.3979 119.011 64.9587 117.923 65.5161H94.5332Z" fill="#323232" stroke="#29ABE2" stroke-width="1.5"/>
<path d="M115.389 42.9189H100.331C99.7785 42.9189 99.3308 43.3667 99.3308 43.9189V59.0705C99.3308 59.6228 99.7785 60.0705 100.331 60.0705H115.389C115.941 60.0705 116.389 59.6228 116.389 59.0705V43.9189C116.389 43.3667 115.941 42.9189 115.389 42.9189Z" fill="#323232" stroke="#29ABE2" stroke-width="1.5"/>
<path d="M64.1484 60.0705V41.847C65.0013 38.8454 66.9915 37.7377 67.8799 37.5591H85.4711C88.4562 37.5591 89.9133 40.4177 90.2687 41.847C90.4463 46.6709 90.6951 57.069 90.2687 60.0705C89.8422 63.072 87.6033 64.1797 86.5372 64.3584C81.2065 64.5371 70.0122 64.7872 67.8799 64.3584C65.7476 63.9296 64.5038 61.3212 64.1484 60.0705Z" fill="#D9D9D9"/>
<path d="M84.9463 41.8602H68.6667C68.1145 41.8602 67.6667 42.3079 67.6667 42.8602V59.1398C67.6667 59.692 68.1145 60.1398 68.6667 60.1398H84.9463C85.4986 60.1398 85.9463 59.692 85.9463 59.1398V42.8602C85.9463 42.3079 85.4986 41.8602 84.9463 41.8602Z" fill="#323232"/>
<path d="M29.6072 38.0833V64.5713H35.0011V45.1107L44.1708 57.5439L53.8799 45.1107V64.5713H59.2738V38.0833H53.8799L44.1708 48.8947L35.0011 38.0833H29.6072Z" fill="#D9D9D9"/>
<path d="M27.7491 12.2903C27.9508 21.9564 27.8809 26.0392 27.7491 33.2581C23.8373 30.4794 21.5593 29.4809 17.0495 30.5699C12.3255 30.5296 9.94377 30.0059 6.34982 27.8817C1.88247 23.4243 1.01667 20.5247 1 14.9785C1.94472 7.15601 5.44447 5.53328 12.2346 3.15051C21.3843 3.39178 25.4413 6.99615 27.7491 12.2903Z" fill="#181818" stroke="black" stroke-width="0.5"/>
<path d="M22.5004 13.3715C22.4093 17.8787 22.3904 20.372 22.5004 24.6618C19.2421 25.6247 17.2615 25.6745 13.3628 24.6618C8.13447 23.0805 6.90626 21.2685 6.37512 17.1349C7.11503 10.7263 8.92477 9.0701 13.9003 8.53278C18.3501 8.43093 20.1527 9.64157 22.5004 13.3715Z" fill="#323232" stroke="black" stroke-width="0.5"/>
<path d="M34.3255 20.8944C33.2505 20.8925 30.0254 23.5826 30.0254 23.5826V7.99118C30.8138 5.4035 31.5954 4.19802 33.788 2.61483C35.849 1.28921 37.3208 0.971627 40.7756 1.00193C45.2421 2.02758 46.9615 3.36714 48.8383 6.91591C49.6282 9.85501 49.5091 11.5036 48.8383 14.4428C47.5285 18.466 42.3881 21.4301 40.7756 21.4301C39.1631 21.4301 35.4005 20.8963 34.3255 20.8944Z" fill="#181818" stroke="black" stroke-width="0.5"/>
<path d="M34.3257 9.54562V16.7712C38.9872 17.4449 40.4865 16.9806 44.0009 15.5161C45.3403 13.2341 46.4935 12.123 45.8287 9.54562C44.3241 6.19762 42.1007 4.8811 39.0315 5.41672C36.6102 5.83926 35.7495 6.93111 34.3257 9.54562Z" fill="#323232" stroke="black" stroke-width="0.5"/>
<path d="M75.9644 84.12C75.2444 84.12 74.6311 83.9733 74.1244 83.68C73.6178 83.38 73.2344 82.96 72.9744 82.42C72.7144 81.88 72.5844 81.2467 72.5844 80.52C72.5844 79.7933 72.7144 79.16 72.9744 78.62C73.2411 78.08 73.6278 77.6633 74.1344 77.37C74.6478 77.07 75.2644 76.92 75.9844 76.92C76.3311 76.92 76.6711 76.96 77.0044 77.04C77.3378 77.1133 77.6378 77.2267 77.9044 77.38V78.48H77.8644C77.6244 78.3 77.3444 78.1567 77.0244 78.05C76.7111 77.9433 76.3878 77.89 76.0544 77.89C75.3011 77.89 74.7244 78.1233 74.3244 78.59C73.9311 79.05 73.7344 79.6933 73.7344 80.52C73.7344 81.3467 73.9278 81.9933 74.3144 82.46C74.7078 82.92 75.2778 83.15 76.0244 83.15C76.3578 83.15 76.6844 83.0967 77.0044 82.99C77.3244 82.8767 77.6111 82.72 77.8644 82.52H77.9044V83.62C77.3511 83.9533 76.7044 84.12 75.9644 84.12ZM80.0217 77.04H82.3017C84.115 77.04 85.0217 77.8 85.0217 79.32C85.0217 80.08 84.7984 80.6633 84.3517 81.07C83.905 81.4767 83.2517 81.68 82.3917 81.68H81.1017V84H80.0217V77.04ZM82.3217 80.71C82.8617 80.71 83.255 80.6067 83.5017 80.4C83.7484 80.1933 83.8717 79.8467 83.8717 79.36C83.8717 78.88 83.7484 78.54 83.5017 78.34C83.2617 78.1333 82.8617 78.03 82.3017 78.03H81.1017V80.71H82.3217ZM89.6433 84L89.5133 83.31C89.0133 83.85 88.4133 84.12 87.7133 84.12C87.2199 84.12 86.8166 83.9867 86.5033 83.72C86.1899 83.4467 86.0333 83.0867 86.0333 82.64C86.0333 82.06 86.2599 81.6233 86.7133 81.33C87.1666 81.03 87.7766 80.88 88.5433 80.88C88.8566 80.88 89.1499 80.8933 89.4233 80.92V80.64C89.4233 80.3067 89.3299 80.05 89.1433 79.87C88.9633 79.69 88.7066 79.6 88.3733 79.6C88.0066 79.6 87.6699 79.6533 87.3633 79.76C87.0633 79.8667 86.7466 80.0367 86.4133 80.27V79.27C86.7199 79.05 87.0366 78.8933 87.3633 78.8C87.6966 78.7067 88.0699 78.66 88.4833 78.66C89.1099 78.66 89.6033 78.8267 89.9633 79.16C90.3233 79.4867 90.5033 79.94 90.5033 80.52V82.84L90.7233 84H89.6433ZM87.9033 83.26C88.1899 83.26 88.4533 83.2 88.6933 83.08C88.9399 82.9533 89.1833 82.77 89.4233 82.53V81.68H88.4833C88.0633 81.68 87.7366 81.7467 87.5033 81.88C87.2699 82.0133 87.1533 82.24 87.1533 82.56C87.1533 82.78 87.2199 82.9533 87.3533 83.08C87.4866 83.2 87.6699 83.26 87.9033 83.26ZM95.444 84L95.314 83.31C94.814 83.85 94.214 84.12 93.514 84.12C93.0207 84.12 92.6174 83.9867 92.304 83.72C91.9907 83.4467 91.834 83.0867 91.834 82.64C91.834 82.06 92.0607 81.6233 92.514 81.33C92.9674 81.03 93.5774 80.88 94.344 80.88C94.6574 80.88 94.9507 80.8933 95.224 80.92V80.64C95.224 80.3067 95.1307 80.05 94.944 79.87C94.764 79.69 94.5074 79.6 94.174 79.6C93.8074 79.6 93.4707 79.6533 93.164 79.76C92.864 79.8667 92.5474 80.0367 92.214 80.27V79.27C92.5207 79.05 92.8374 78.8933 93.164 78.8C93.4974 78.7067 93.8707 78.66 94.284 78.66C94.9107 78.66 95.404 78.8267 95.764 79.16C96.124 79.4867 96.304 79.94 96.304 80.52V82.84L96.524 84H95.444ZM93.704 83.26C93.9907 83.26 94.254 83.2 94.494 83.08C94.7407 82.9533 94.984 82.77 95.224 82.53V81.68H94.284C93.864 81.68 93.5374 81.7467 93.304 81.88C93.0707 82.0133 92.954 82.24 92.954 82.56C92.954 82.78 93.0207 82.9533 93.154 83.08C93.2874 83.2 93.4707 83.26 93.704 83.26ZM100.305 84.12C99.9248 84.12 99.5248 84.07 99.1048 83.97C98.6848 83.87 98.2882 83.7333 97.9148 83.56V82.46C98.7615 82.9267 99.5382 83.16 100.245 83.16C100.645 83.16 100.961 83.07 101.195 82.89C101.435 82.71 101.555 82.4633 101.555 82.15C101.555 81.9233 101.488 81.7367 101.355 81.59C101.228 81.4367 101.065 81.3167 100.865 81.23C100.671 81.1367 100.405 81.03 100.065 80.91C99.6315 80.7567 99.2815 80.61 99.0148 80.47C98.7482 80.33 98.5182 80.1333 98.3248 79.88C98.1382 79.62 98.0448 79.2867 98.0448 78.88C98.0448 78.2733 98.2582 77.7967 98.6848 77.45C99.1182 77.0967 99.7015 76.92 100.435 76.92C100.781 76.92 101.121 76.96 101.455 77.04C101.788 77.1133 102.098 77.2233 102.385 77.37V78.44C101.718 78.0667 101.071 77.88 100.445 77.88C100.038 77.88 99.7182 77.96 99.4848 78.12C99.2582 78.2733 99.1448 78.4867 99.1448 78.76C99.1448 78.9533 99.2048 79.1167 99.3248 79.25C99.4448 79.3833 99.5948 79.4933 99.7748 79.58C99.9615 79.66 100.215 79.7567 100.535 79.87C100.981 80.03 101.345 80.1833 101.625 80.33C101.905 80.4767 102.145 80.69 102.345 80.97C102.551 81.2433 102.658 81.5967 102.665 82.03C102.665 82.67 102.448 83.18 102.015 83.56C101.588 83.9333 101.018 84.12 100.305 84.12ZM107.424 77.04H109.704C111.517 77.04 112.424 77.8 112.424 79.32C112.424 80.08 112.201 80.6633 111.754 81.07C111.307 81.4767 110.654 81.68 109.794 81.68H108.504V84H107.424V77.04ZM109.724 80.71C110.264 80.71 110.657 80.6067 110.904 80.4C111.151 80.1933 111.274 79.8467 111.274 79.36C111.274 78.88 111.151 78.54 110.904 78.34C110.664 78.1333 110.264 78.03 109.704 78.03H108.504V80.71H109.724ZM114.026 77.04H115.106V83.01H118.146V84H114.026V77.04ZM123.946 82.28H120.756L120.116 84H119.036L121.696 77.04H123.056L125.716 84H124.586L123.946 82.28ZM123.596 81.36L122.356 78.04L121.106 81.36H123.596ZM128.338 78.07H126.288V77.04H131.468V78.07H129.418V84H128.338V78.07ZM136.944 82.28H133.754L133.114 84H132.034L134.694 77.04H136.054L138.714 84H137.584L136.944 82.28ZM136.594 81.36L135.354 78.04L134.104 81.36H136.594ZM141.307 78.03V80.13H143.857V81.07H141.307V84H140.227V77.04H144.517V78.03H141.307ZM149.273 84.12C148.586 84.12 147.993 83.9733 147.493 83.68C147 83.38 146.623 82.96 146.363 82.42C146.11 81.8733 145.983 81.24 145.983 80.52C145.983 79.8 146.11 79.17 146.363 78.63C146.623 78.0833 147 77.6633 147.493 77.37C147.993 77.07 148.586 76.92 149.273 76.92C149.96 76.92 150.55 77.07 151.043 77.37C151.543 77.6633 151.92 78.0833 152.173 78.63C152.433 79.17 152.563 79.8 152.563 80.52C152.563 81.24 152.433 81.8733 152.173 82.42C151.92 82.96 151.543 83.38 151.043 83.68C150.55 83.9733 149.96 84.12 149.273 84.12ZM149.273 83.13C149.96 83.13 150.486 82.9 150.853 82.44C151.226 81.9733 151.413 81.3333 151.413 80.52C151.413 79.7067 151.226 79.07 150.853 78.61C150.486 78.1433 149.96 77.91 149.273 77.91C148.586 77.91 148.056 78.1433 147.683 78.61C147.316 79.07 147.133 79.7067 147.133 80.52C147.133 81.3333 147.316 81.9733 147.683 82.44C148.056 82.9 148.586 83.13 149.273 83.13ZM158.611 84L157.191 81.31H157.171H155.701V84H154.621V77.04H157.051C157.911 77.04 158.555 77.22 158.981 77.58C159.408 77.9333 159.621 78.4467 159.621 79.12C159.621 79.6133 159.511 80.0333 159.291 80.38C159.071 80.72 158.745 80.97 158.311 81.13L159.841 84H158.611ZM157.061 80.33C157.541 80.33 157.895 80.24 158.121 80.06C158.355 79.88 158.471 79.5733 158.471 79.14C158.471 78.7333 158.358 78.4467 158.131 78.28C157.905 78.1133 157.545 78.03 157.051 78.03H155.701V80.33H157.061ZM169.123 84H168.043V78.2L165.973 84H164.813L162.703 78.23V84H161.623V77.04H163.403L165.413 82.52L167.373 77.04H169.123V84Z" fill="white"/>
</svg>
