<svg width="226" height="90" viewBox="0 0 226 90" fill="none" xmlns="http://www.w3.org/2000/svg">
<path d="M29.6072 38.2507V64.7388H35.0011V45.2782L44.1708 57.7114L53.8799 45.2782V64.7388H59.2738V38.2507H53.8799L44.1708 49.0622L35.0011 38.2507H29.6072Z" fill="black"/>
<path d="M64.2738 60.4882V42.2646C65.1267 39.2631 67.1168 38.1554 68.0053 37.9767H85.5964C88.5816 37.9767 90.0386 40.8353 90.394 42.2646C90.5717 47.0885 90.8205 57.4866 90.394 60.4882C89.9676 63.4897 87.7287 64.5974 86.6626 64.776C81.3319 64.9547 70.1375 65.2048 68.0053 64.776C65.873 64.3473 64.6292 61.7388 64.2738 60.4882Z" fill="black"/>
<path d="M95.6295 65.4304V37.5591H117.931C120.977 37.5591 122.101 40.9037 122.283 42.5759V61.5284C122.283 63.3122 120.107 64.873 119.019 65.4304H95.6295Z" fill="white" stroke="#29ABE2" stroke-width="1.5"/>
<path d="M116.485 42.8332H101.427C100.875 42.8332 100.427 43.2809 100.427 43.8332V58.9848C100.427 59.5371 100.875 59.9848 101.427 59.9848H116.485C117.038 59.9848 117.485 59.5371 117.485 58.9848V43.8332C117.485 43.2809 117.038 42.8332 116.485 42.8332Z" stroke="#29ABE2" stroke-width="1.5"/>
<path d="M127.81 41.5244L127.283 65.4304H132.558V55.9792H148.91V65.4304H153.658C153.833 58.3883 154.185 44.3041 153.658 41.5244C153.33 39.8004 150.493 37.0767 146.273 37.6326C139.415 37.6327 132.136 37.7437 130.448 38.1885C128.76 38.6332 128.338 40.4125 127.81 41.5244Z" stroke="#29ABE2" stroke-width="1.5"/>
<path d="M148.606 50.4228H132.614V42.919H148.606V50.4228Z" fill="white" stroke="#29ABE2" stroke-width="1.5"/>
<path d="M174.395 64.8944L158.936 38.0951H164.267L176.527 58.4626L188.788 38.0951H194.118L178.659 64.8944H174.395Z" fill="black"/>
<path d="M199.118 60.4882V42.2646C199.971 39.2631 201.961 38.1554 202.85 37.9767H220.441C223.426 37.9767 224.883 40.8353 225.239 42.2646C225.416 47.0885 225.665 57.4866 225.239 60.4882C224.812 63.4897 222.573 64.5974 221.507 64.776C216.177 64.9547 204.982 65.2048 202.85 64.776C200.718 64.3473 199.474 61.7388 199.118 60.4882Z" fill="black"/>
<path d="M219.796 42.4176H204.796C204.243 42.4176 203.796 42.8654 203.796 43.4176V59.4176C203.796 59.9699 204.243 60.4176 204.796 60.4176H219.796C220.348 60.4176 220.796 59.9699 220.796 59.4176V43.4176C220.796 42.8654 220.348 42.4176 219.796 42.4176Z" fill="white"/>
<path d="M85 43H70C69.4477 43 69 43.4477 69 44V58C69 58.5523 69.4477 59 70 59H85C85.5523 59 86 58.5523 86 58V44C86 43.4477 85.5523 43 85 43Z" fill="white"/>
<path d="M27.7491 12.2903C27.9508 21.9565 27.8809 26.0392 27.7491 33.2581C23.8373 30.4795 21.5593 29.481 17.0495 30.5699C12.3255 30.5296 9.94377 30.0059 6.34982 27.8817C1.88247 23.4243 1.01667 20.5247 1 14.9785C1.94472 7.15604 5.44447 5.53331 12.2346 3.15054C21.3843 3.39181 25.4413 6.99618 27.7491 12.2903Z" fill="#181818" stroke="black" stroke-width="0.5"/>
<path d="M22.5004 13.3715C22.4093 17.8787 22.3904 20.3721 22.5004 24.6619C19.2421 25.6248 17.2615 25.6745 13.3628 24.6619C8.13447 23.0805 6.90626 21.2686 6.37512 17.135C7.11503 10.7264 8.92477 9.07014 13.9003 8.53281C18.3501 8.43097 20.1527 9.64161 22.5004 13.3715Z" fill="white" stroke="black" stroke-width="0.5"/>
<path d="M34.3255 20.8944C33.2505 20.8925 30.0254 23.5826 30.0254 23.5826V7.99118C30.8138 5.4035 31.5954 4.19802 33.788 2.61483C35.849 1.28921 37.3208 0.971627 40.7756 1.00193C45.2421 2.02758 46.9615 3.36714 48.8383 6.91591C49.6282 9.85501 49.5091 11.5036 48.8383 14.4428C47.5285 18.466 42.3881 21.4301 40.7756 21.4301C39.1631 21.4301 35.4005 20.8963 34.3255 20.8944Z" fill="white" stroke="black"/>
<path d="M34.3257 9.54562V16.7712C38.9872 17.4449 40.4865 16.9806 44.0009 15.5161C45.3403 13.2341 46.4935 12.123 45.8287 9.54562C44.3241 6.19761 42.1007 4.8811 39.0315 5.41672C36.6102 5.83926 35.7495 6.9311 34.3257 9.54562Z" fill="white" stroke="black"/>
<path d="M75.9644 83.6362C75.2444 83.6362 74.6311 83.4895 74.1244 83.1962C73.6178 82.8962 73.2344 82.4762 72.9744 81.9362C72.7144 81.3962 72.5844 80.7628 72.5844 80.0362C72.5844 79.3095 72.7144 78.6762 72.9744 78.1362C73.2411 77.5962 73.6278 77.1795 74.1344 76.8862C74.6478 76.5862 75.2644 76.4362 75.9844 76.4362C76.3311 76.4362 76.6711 76.4762 77.0044 76.5562C77.3378 76.6295 77.6378 76.7428 77.9044 76.8962V77.9962H77.8644C77.6244 77.8162 77.3444 77.6728 77.0244 77.5662C76.7111 77.4595 76.3878 77.4062 76.0544 77.4062C75.3011 77.4062 74.7244 77.6395 74.3244 78.1062C73.9311 78.5662 73.7344 79.2095 73.7344 80.0362C73.7344 80.8628 73.9278 81.5095 74.3144 81.9762C74.7078 82.4362 75.2778 82.6662 76.0244 82.6662C76.3578 82.6662 76.6844 82.6128 77.0044 82.5062C77.3244 82.3928 77.6111 82.2362 77.8644 82.0362H77.9044V83.1362C77.3511 83.4695 76.7044 83.6362 75.9644 83.6362ZM80.0217 76.5562H82.3017C84.115 76.5562 85.0217 77.3162 85.0217 78.8362C85.0217 79.5962 84.7984 80.1795 84.3517 80.5862C83.905 80.9928 83.2517 81.1962 82.3917 81.1962H81.1017V83.5162H80.0217V76.5562ZM82.3217 80.2262C82.8617 80.2262 83.255 80.1228 83.5017 79.9162C83.7484 79.7095 83.8717 79.3628 83.8717 78.8762C83.8717 78.3962 83.7484 78.0562 83.5017 77.8562C83.2617 77.6495 82.8617 77.5462 82.3017 77.5462H81.1017V80.2262H82.3217ZM89.6433 83.5162L89.5133 82.8262C89.0133 83.3662 88.4133 83.6362 87.7133 83.6362C87.2199 83.6362 86.8166 83.5028 86.5033 83.2362C86.1899 82.9628 86.0333 82.6028 86.0333 82.1562C86.0333 81.5762 86.2599 81.1395 86.7133 80.8462C87.1666 80.5462 87.7766 80.3962 88.5433 80.3962C88.8566 80.3962 89.1499 80.4095 89.4233 80.4362V80.1562C89.4233 79.8228 89.3299 79.5662 89.1433 79.3862C88.9633 79.2062 88.7066 79.1162 88.3733 79.1162C88.0066 79.1162 87.6699 79.1695 87.3633 79.2762C87.0633 79.3828 86.7466 79.5528 86.4133 79.7862V78.7862C86.7199 78.5662 87.0366 78.4095 87.3633 78.3162C87.6966 78.2228 88.0699 78.1762 88.4833 78.1762C89.1099 78.1762 89.6033 78.3428 89.9633 78.6762C90.3233 79.0028 90.5033 79.4562 90.5033 80.0362V82.3562L90.7233 83.5162H89.6433ZM87.9033 82.7762C88.1899 82.7762 88.4533 82.7162 88.6933 82.5962C88.9399 82.4695 89.1833 82.2862 89.4233 82.0462V81.1962H88.4833C88.0633 81.1962 87.7366 81.2628 87.5033 81.3962C87.2699 81.5295 87.1533 81.7562 87.1533 82.0762C87.1533 82.2962 87.2199 82.4695 87.3533 82.5962C87.4866 82.7162 87.6699 82.7762 87.9033 82.7762ZM95.444 83.5162L95.314 82.8262C94.814 83.3662 94.214 83.6362 93.514 83.6362C93.0207 83.6362 92.6174 83.5028 92.304 83.2362C91.9907 82.9628 91.834 82.6028 91.834 82.1562C91.834 81.5762 92.0607 81.1395 92.514 80.8462C92.9674 80.5462 93.5774 80.3962 94.344 80.3962C94.6574 80.3962 94.9507 80.4095 95.224 80.4362V80.1562C95.224 79.8228 95.1307 79.5662 94.944 79.3862C94.764 79.2062 94.5074 79.1162 94.174 79.1162C93.8074 79.1162 93.4707 79.1695 93.164 79.2762C92.864 79.3828 92.5474 79.5528 92.214 79.7862V78.7862C92.5207 78.5662 92.8374 78.4095 93.164 78.3162C93.4974 78.2228 93.8707 78.1762 94.284 78.1762C94.9107 78.1762 95.404 78.3428 95.764 78.6762C96.124 79.0028 96.304 79.4562 96.304 80.0362V82.3562L96.524 83.5162H95.444ZM93.704 82.7762C93.9907 82.7762 94.254 82.7162 94.494 82.5962C94.7407 82.4695 94.984 82.2862 95.224 82.0462V81.1962H94.284C93.864 81.1962 93.5374 81.2628 93.304 81.3962C93.0707 81.5295 92.954 81.7562 92.954 82.0762C92.954 82.2962 93.0207 82.4695 93.154 82.5962C93.2874 82.7162 93.4707 82.7762 93.704 82.7762ZM100.305 83.6362C99.9248 83.6362 99.5248 83.5862 99.1048 83.4862C98.6848 83.3862 98.2882 83.2495 97.9148 83.0762V81.9762C98.7615 82.4428 99.5382 82.6762 100.245 82.6762C100.645 82.6762 100.961 82.5862 101.195 82.4062C101.435 82.2262 101.555 81.9795 101.555 81.6662C101.555 81.4395 101.488 81.2528 101.355 81.1062C101.228 80.9528 101.065 80.8328 100.865 80.7462C100.671 80.6528 100.405 80.5462 100.065 80.4262C99.6315 80.2728 99.2815 80.1262 99.0148 79.9862C98.7482 79.8462 98.5182 79.6495 98.3248 79.3962C98.1382 79.1362 98.0448 78.8028 98.0448 78.3962C98.0448 77.7895 98.2582 77.3128 98.6848 76.9662C99.1182 76.6128 99.7015 76.4362 100.435 76.4362C100.781 76.4362 101.121 76.4762 101.455 76.5562C101.788 76.6295 102.098 76.7395 102.385 76.8862V77.9562C101.718 77.5828 101.071 77.3962 100.445 77.3962C100.038 77.3962 99.7182 77.4762 99.4848 77.6362C99.2582 77.7895 99.1448 78.0028 99.1448 78.2762C99.1448 78.4695 99.2048 78.6328 99.3248 78.7662C99.4448 78.8995 99.5948 79.0095 99.7748 79.0962C99.9615 79.1762 100.215 79.2728 100.535 79.3862C100.981 79.5462 101.345 79.6995 101.625 79.8462C101.905 79.9928 102.145 80.2062 102.345 80.4862C102.551 80.7595 102.658 81.1128 102.665 81.5462C102.665 82.1862 102.448 82.6962 102.015 83.0762C101.588 83.4495 101.018 83.6362 100.305 83.6362ZM107.424 76.5562H109.704C111.517 76.5562 112.424 77.3162 112.424 78.8362C112.424 79.5962 112.201 80.1795 111.754 80.5862C111.307 80.9928 110.654 81.1962 109.794 81.1962H108.504V83.5162H107.424V76.5562ZM109.724 80.2262C110.264 80.2262 110.657 80.1228 110.904 79.9162C111.151 79.7095 111.274 79.3628 111.274 78.8762C111.274 78.3962 111.151 78.0562 110.904 77.8562C110.664 77.6495 110.264 77.5462 109.704 77.5462H108.504V80.2262H109.724ZM114.026 76.5562H115.106V82.5262H118.146V83.5162H114.026V76.5562ZM123.946 81.7962H120.756L120.116 83.5162H119.036L121.696 76.5562H123.056L125.716 83.5162H124.586L123.946 81.7962ZM123.596 80.8762L122.356 77.5562L121.106 80.8762H123.596ZM128.338 77.5862H126.288V76.5562H131.468V77.5862H129.418V83.5162H128.338V77.5862ZM136.944 81.7962H133.754L133.114 83.5162H132.034L134.694 76.5562H136.054L138.714 83.5162H137.584L136.944 81.7962ZM136.594 80.8762L135.354 77.5562L134.104 80.8762H136.594ZM141.307 77.5462V79.6462H143.857V80.5862H141.307V83.5162H140.227V76.5562H144.517V77.5462H141.307ZM149.273 83.6362C148.586 83.6362 147.993 83.4895 147.493 83.1962C147 82.8962 146.623 82.4762 146.363 81.9362C146.11 81.3895 145.983 80.7562 145.983 80.0362C145.983 79.3162 146.11 78.6862 146.363 78.1462C146.623 77.5995 147 77.1795 147.493 76.8862C147.993 76.5862 148.586 76.4362 149.273 76.4362C149.96 76.4362 150.55 76.5862 151.043 76.8862C151.543 77.1795 151.92 77.5995 152.173 78.1462C152.433 78.6862 152.563 79.3162 152.563 80.0362C152.563 80.7562 152.433 81.3895 152.173 81.9362C151.92 82.4762 151.543 82.8962 151.043 83.1962C150.55 83.4895 149.96 83.6362 149.273 83.6362ZM149.273 82.6462C149.96 82.6462 150.486 82.4162 150.853 81.9562C151.226 81.4895 151.413 80.8495 151.413 80.0362C151.413 79.2228 151.226 78.5862 150.853 78.1262C150.486 77.6595 149.96 77.4262 149.273 77.4262C148.586 77.4262 148.056 77.6595 147.683 78.1262C147.316 78.5862 147.133 79.2228 147.133 80.0362C147.133 80.8495 147.316 81.4895 147.683 81.9562C148.056 82.4162 148.586 82.6462 149.273 82.6462ZM158.611 83.5162L157.191 80.8262H157.171H155.701V83.5162H154.621V76.5562H157.051C157.911 76.5562 158.555 76.7362 158.981 77.0962C159.408 77.4495 159.621 77.9628 159.621 78.6362C159.621 79.1295 159.511 79.5495 159.291 79.8962C159.071 80.2362 158.745 80.4862 158.311 80.6462L159.841 83.5162H158.611ZM157.061 79.8462C157.541 79.8462 157.895 79.7562 158.121 79.5762C158.355 79.3962 158.471 79.0895 158.471 78.6562C158.471 78.2495 158.358 77.9628 158.131 77.7962C157.905 77.6295 157.545 77.5462 157.051 77.5462H155.701V79.8462H157.061ZM169.123 83.5162H168.043V77.7162L165.973 83.5162H164.813L162.703 77.7462V83.5162H161.623V76.5562H163.403L165.413 82.0362L167.373 76.5562H169.123V83.5162Z" fill="#181818"/>
</svg>
